<svg width="371.094" height="75.195" viewBox="0 0 371.094 75.195" xmlns="http://www.w3.org/2000/svg"><g id="svgGroup" stroke-linecap="round" fill-rule="evenodd" font-size="9pt" stroke="#e3e3e3" stroke-width="0.25mm" fill="#e3e3e3" style="stroke:#e3e3e3;stroke-width:0.25mm;fill:#e3e3e3"><path d="M 205.811 39.795 L 205.811 57.617 A 17.285 17.285 0 0 1 205.525 60.67 A 23.113 23.113 0 0 1 204.883 63.306 A 16.999 16.999 0 0 1 201.88 68.97 A 15.856 15.856 0 0 1 198.253 72.276 A 19.604 19.604 0 0 1 196.46 73.34 Q 193.311 74.995 188.886 75.092 A 25.375 25.375 0 0 1 188.33 75.098 L 165.43 75.098 A 17.285 17.285 0 0 1 162.377 74.812 A 23.113 23.113 0 0 1 159.741 74.17 A 16.999 16.999 0 0 1 154.077 71.167 A 15.856 15.856 0 0 1 150.771 67.54 A 19.604 19.604 0 0 1 149.707 65.747 Q 148.052 62.598 147.955 58.173 A 25.375 25.375 0 0 1 147.949 57.617 A 17.294 17.294 0 0 1 148.211 54.692 A 23.362 23.362 0 0 1 148.877 51.904 Q 149.805 48.828 151.88 46.216 A 15.856 15.856 0 0 1 155.507 42.91 A 19.604 19.604 0 0 1 157.3 41.846 Q 160.449 40.191 164.874 40.094 A 25.375 25.375 0 0 1 165.43 40.088 L 188.33 40.088 L 188.33 52.197 L 165.43 52.197 A 6.766 6.766 0 0 0 163.789 52.385 A 4.567 4.567 0 0 0 161.426 53.784 A 5.543 5.543 0 0 0 160.035 57.106 A 7.291 7.291 0 0 0 160.01 57.715 A 6.086 6.086 0 0 0 160.221 59.363 A 4.442 4.442 0 0 0 161.646 61.597 A 5.797 5.797 0 0 0 165.527 62.988 L 188.33 62.988 A 6.867 6.867 0 0 0 189.971 62.804 A 4.581 4.581 0 0 0 192.334 61.426 A 5.422 5.422 0 0 0 193.716 58.233 A 7.197 7.197 0 0 0 193.75 57.52 L 193.75 39.795 A 6.509 6.509 0 0 0 193.534 38.071 A 4.755 4.755 0 0 0 192.212 35.84 Q 190.674 34.375 188.33 34.375 L 160.449 34.375 L 160.449 22.314 L 188.33 22.314 A 17.285 17.285 0 0 1 191.383 22.6 A 23.113 23.113 0 0 1 194.019 23.242 A 16.999 16.999 0 0 1 199.683 26.245 A 15.856 15.856 0 0 1 202.989 29.872 A 19.604 19.604 0 0 1 204.053 31.665 Q 205.708 34.814 205.805 39.239 A 25.375 25.375 0 0 1 205.811 39.795 Z M 337.061 39.795 L 337.061 57.617 A 17.285 17.285 0 0 1 336.775 60.67 A 23.113 23.113 0 0 1 336.133 63.306 A 16.999 16.999 0 0 1 333.13 68.97 A 15.856 15.856 0 0 1 329.503 72.276 A 19.604 19.604 0 0 1 327.71 73.34 Q 324.561 74.995 320.136 75.092 A 25.375 25.375 0 0 1 319.58 75.098 L 296.68 75.098 A 17.285 17.285 0 0 1 293.627 74.812 A 23.113 23.113 0 0 1 290.991 74.17 A 16.999 16.999 0 0 1 285.327 71.167 A 15.856 15.856 0 0 1 282.021 67.54 A 19.604 19.604 0 0 1 280.957 65.747 Q 279.302 62.598 279.205 58.173 A 25.375 25.375 0 0 1 279.199 57.617 A 17.294 17.294 0 0 1 279.461 54.692 A 23.362 23.362 0 0 1 280.127 51.904 Q 281.055 48.828 283.13 46.216 A 15.856 15.856 0 0 1 286.757 42.91 A 19.604 19.604 0 0 1 288.55 41.846 Q 291.699 40.191 296.124 40.094 A 25.375 25.375 0 0 1 296.68 40.088 L 319.58 40.088 L 319.58 52.197 L 296.68 52.197 A 6.766 6.766 0 0 0 295.039 52.385 A 4.567 4.567 0 0 0 292.676 53.784 A 5.543 5.543 0 0 0 291.285 57.106 A 7.291 7.291 0 0 0 291.26 57.715 A 6.086 6.086 0 0 0 291.471 59.363 A 4.442 4.442 0 0 0 292.896 61.597 A 5.797 5.797 0 0 0 296.777 62.988 L 319.58 62.988 A 6.867 6.867 0 0 0 321.221 62.804 A 4.581 4.581 0 0 0 323.584 61.426 A 5.422 5.422 0 0 0 324.966 58.233 A 7.197 7.197 0 0 0 325 57.52 L 325 39.795 A 6.509 6.509 0 0 0 324.784 38.071 A 4.755 4.755 0 0 0 323.462 35.84 Q 321.924 34.375 319.58 34.375 L 291.699 34.375 L 291.699 22.314 L 319.58 22.314 A 17.285 17.285 0 0 1 322.633 22.6 A 23.113 23.113 0 0 1 325.269 23.242 A 16.999 16.999 0 0 1 330.933 26.245 A 15.856 15.856 0 0 1 334.239 29.872 A 19.604 19.604 0 0 1 335.303 31.665 Q 336.958 34.814 337.055 39.239 A 25.375 25.375 0 0 1 337.061 39.795 Z M 266.162 22.314 L 279.639 22.314 A 132.135 132.135 0 0 1 274.609 35.498 Q 271.729 41.992 267.993 47.876 Q 264.258 53.76 259.644 58.765 A 53.61 53.61 0 0 1 249.439 67.407 A 49.545 49.545 0 0 1 237.28 73.12 A 45.062 45.062 0 0 1 226.927 75.057 A 53.672 53.672 0 0 1 223.047 75.195 A 6.409 6.409 0 0 1 220.557 74.707 Q 219.385 74.219 218.506 73.364 A 6.085 6.085 0 0 1 217.139 71.362 A 6.211 6.211 0 0 1 216.651 68.979 A 7.077 7.077 0 0 1 216.65 68.896 L 216.65 22.314 L 229.346 22.314 L 229.346 62.012 A 20.764 20.764 0 0 0 238.257 60.01 A 34.746 34.746 0 0 0 245.62 55.319 A 39.041 39.041 0 0 0 246.338 54.712 A 51.654 51.654 0 0 0 253.394 47.217 A 75.931 75.931 0 0 0 259.18 38.599 A 81.84 81.84 0 0 0 262.313 32.603 A 70.358 70.358 0 0 0 263.501 29.932 A 74.487 74.487 0 0 0 264.711 26.869 Q 265.331 25.185 265.784 23.664 A 40.667 40.667 0 0 0 266.162 22.314 Z M 69.971 34.375 L 69.971 45.801 A 32.137 32.137 0 0 1 69.025 53.71 A 28.14 28.14 0 0 1 67.749 57.568 A 28.051 28.051 0 0 1 62.118 66.315 A 26.971 26.971 0 0 1 61.621 66.821 A 28.06 28.06 0 0 1 52.428 72.866 A 31.804 31.804 0 0 1 52.344 72.9 A 29.893 29.893 0 0 1 42.62 75.044 A 34.926 34.926 0 0 1 40.674 75.098 L 6.397 75.098 A 6.727 6.727 0 0 1 4.475 74.829 A 6.147 6.147 0 0 1 3.858 74.609 A 6.207 6.207 0 0 1 1.831 73.267 A 6.207 6.207 0 0 1 0.488 71.24 A 6.434 6.434 0 0 1 0.008 69.04 A 7.46 7.46 0 0 1 0 68.701 L 0 11.475 A 6.409 6.409 0 0 1 0.488 8.984 Q 0.977 7.813 1.831 6.934 A 6.022 6.022 0 0 1 3.858 5.566 A 6.434 6.434 0 0 1 6.058 5.086 A 7.46 7.46 0 0 1 6.397 5.078 L 40.674 5.078 A 31.696 31.696 0 0 1 49.073 6.164 A 28.483 28.483 0 0 1 52.344 7.275 A 28.137 28.137 0 0 1 61.376 13.114 A 27.198 27.198 0 0 1 61.621 13.354 A 27.766 27.766 0 0 1 67.591 22.254 A 31.692 31.692 0 0 1 67.749 22.632 A 29.894 29.894 0 0 1 69.917 32.415 A 35.058 35.058 0 0 1 69.971 34.375 Z M 371.094 62.402 L 371.094 75.098 L 365.43 75.098 A 18.386 18.386 0 0 1 362.077 74.775 A 23.817 23.817 0 0 1 359.595 74.17 A 17.191 17.191 0 0 1 353.977 71.25 A 19.498 19.498 0 0 1 353.809 71.118 A 15.994 15.994 0 0 1 350.302 67.218 A 19.431 19.431 0 0 1 349.365 65.601 Q 347.772 62.525 347.623 58.187 A 26.488 26.488 0 0 1 347.608 57.275 L 347.608 0 L 360.303 0 L 360.303 57.275 A 6.078 6.078 0 0 0 360.509 58.899 A 4.516 4.516 0 0 0 361.768 61.011 A 5.017 5.017 0 0 0 365.016 62.39 A 6.623 6.623 0 0 0 365.43 62.402 L 371.094 62.402 Z M 139.697 40.088 L 139.697 75.098 L 127.002 75.098 L 127.002 40.088 A 7.823 7.823 0 0 0 126.878 38.648 Q 126.605 37.193 125.733 36.304 A 3.988 3.988 0 0 0 124.101 35.318 Q 123.164 35.01 121.924 35.01 L 99.024 35.01 L 99.024 22.314 L 121.924 22.314 A 17.666 17.666 0 0 1 124.44 22.502 A 21.348 21.348 0 0 1 125.733 22.729 A 19.51 19.51 0 0 1 129.588 23.969 A 21.501 21.501 0 0 1 129.712 24.023 Q 131.69 24.902 133.496 26.294 A 14.926 14.926 0 0 1 136.659 29.648 A 16.285 16.285 0 0 1 136.67 29.663 A 16.251 16.251 0 0 1 138.296 32.671 A 19.737 19.737 0 0 1 138.867 34.229 Q 139.697 36.816 139.697 40.088 Z M 93.897 0 L 93.897 75.098 L 81.201 75.098 L 81.201 0 L 93.897 0 Z M 57.275 45.801 L 57.275 34.375 Q 57.275 30.664 56.079 27.588 Q 54.883 24.512 52.686 22.339 A 15.249 15.249 0 0 0 47.674 19.065 A 17.463 17.463 0 0 0 47.437 18.97 A 17.377 17.377 0 0 0 42.819 17.879 A 21.337 21.337 0 0 0 40.674 17.773 L 12.695 17.773 L 12.695 62.402 L 40.674 62.402 A 19.983 19.983 0 0 0 44.744 62.003 A 16.627 16.627 0 0 0 47.437 61.206 Q 50.488 60.01 52.686 57.837 A 14.82 14.82 0 0 0 55.984 52.849 A 17.015 17.015 0 0 0 56.079 52.612 A 17.302 17.302 0 0 0 57.147 48.192 A 21.615 21.615 0 0 0 57.275 45.801 Z"/></g></svg>